<svg width="18" height="18" viewBox="0 0 18 18" xmlns="http://www.w3.org/2000/svg">
  <path fill="#4285F4" d="M17.64 9.2045c0-.638-.0575-1.252-.1645-1.841H9v3.481h4.844c-.209 1.125-.8435 2.08-1.7985 2.717v2.258h2.908c1.703-1.568 2.686-3.88 2.686-6.615z"/>
  <path fill="#34A853" d="M9 18c2.43 0 4.4675-.8065 5.9565-2.1805l-2.908-2.258c-.805.54-1.8365.861-3.0485.861-2.3465 0-4.3335-1.584-5.0435-3.711H.9575v2.332C2.437 15.8435 5.481 18 9 18z"/>
  <path fill="#FBBC05" d="M3.9565 10.7115C3.774 10.1715 3.6665 9.5935 3.6665 9s.1075-1.1715.2905-1.7115V4.9565H.9575C.3475 6.1685 0 7.5525 0 9s.3475 2.8315.9575 4.0435l2.999-2.332z"/>
  <path fill="#EA4335" d="M9 3.5835c1.321 0 2.5085.4545 3.44 1.347l2.579-2.579C13.4655.905 11.43 0 9 0 5.481 0 2.437 2.1565.9575 4.9565l2.999 2.332C4.6665 5.5835 6.6535 3.5835 9 3.5835z"/>
</svg>
